<?xml version="1.0" encoding="UTF-8" standalone="no"?>
<svg
   height="512"
   viewBox="0 0 64 64"
   width="512"
   version="1.1"
   id="svg185602"
   sodipodi:docname="logo.svg"
   inkscape:version="1.1 (c68e22c387, 2021-05-23)"
   xmlns:inkscape="http://www.inkscape.org/namespaces/inkscape"
   xmlns:sodipodi="http://sodipodi.sourceforge.net/DTD/sodipodi-0.dtd"
   xmlns="http://www.w3.org/2000/svg"
   xmlns:svg="http://www.w3.org/2000/svg">
  <defs
     id="defs185606" />
  <sodipodi:namedview
     id="namedview185604"
     pagecolor="#ffffff"
     bordercolor="#666666"
     borderopacity="1.0"
     inkscape:pageshadow="2"
     inkscape:pageopacity="0.0"
     inkscape:pagecheckerboard="0"
     showgrid="false"
     inkscape:zoom="0.41455078"
     inkscape:cx="720.05654"
     inkscape:cy="-63.924617"
     inkscape:window-width="1920"
     inkscape:window-height="1057"
     inkscape:window-x="1912"
     inkscape:window-y="-8"
     inkscape:window-maximized="1"
     inkscape:current-layer="svg185602" />
  <g
     id="Filled_outline"
     data-name="Filled outline"
     transform="matrix(-1,0,0,1,63.987796,0)">
    <circle
       cx="5"
       cy="50"
       fill="#66342e"
       r="2"
       id="circle185563" />
    <path
       d="M 19.083,36.006 C 19.055,36.006 19.028,36 19,36 c -3.282,0 -5.563,2.562 -7,5 l -5,9 h 12 a 1.393,1.393 0 0 1 1,1 v 2 H 49.851 A 14.955,14.955 0 0 0 28.971,37.285 Z"
       fill="#ad6327"
       id="path185565" />
    <path
       d="m 29,37 a 5,5 0 0 1 -10,0 c 0,-2.761 2.239,-8 5,-8 2.761,0 5,5.239 5,8 z"
       fill="#d3843d"
       id="path185567" />
    <path
       d="m 14,42 h 2 v 2 h -2 z"
       fill="#66342e"
       id="path185569" />
    <path
       d="M 47,3 A 13.99,13.99 0 0 0 34.807,23.867 L 33,32 41.243,29.752 A 14,14 0 1 0 47,3 Z"
       fill="#f9bb4b"
       id="path185571" />
    <circle
       cx="42"
       cy="14"
       fill="#b459a1"
       r="3"
       id="circle185573" />
    <circle
       cx="52"
       cy="21"
       fill="#b459a1"
       r="2"
       id="circle185575" />
    <circle
       cx="24"
       cy="37"
       r="2"
       id="circle185577" />
    <path
       d="m 14,42 h 2 v 2 h -2 z"
       id="path185579" />
    <path
       d="M 59,52 H 50.962 C 50.987,51.656 51,51.326 51,51 A 16.019,16.019 0 0 0 35,35 15.77,15.77 0 0 0 29.906,35.86 C 29.435,32.614 27.135,28 24,28 c -2.884,0 -5.063,3.908 -5.761,7.06 -2.716,0.295 -5.161,2.147 -7.113,5.455 L 7.061,47.831 A 3,3 0 1 0 7.816,51 H 18.852 A 1.028,1.028 0 0 1 19,51.147 V 53 a 1,1 0 0 0 1,1 h 39 a 1,1 0 0 1 0,2 H 46 a 3,3 0 0 0 0,6 h 6 v -2 h -6 a 1,1 0 0 1 0,-2 h 13 a 3,3 0 0 0 0,-6 z M 5,51 A 1,1 0 1 1 6,50 1,1 0 0 1 5,51 Z M 24,30 c 1.944,0 4,4.552 4,7 a 4,4 0 0 1 -8,0 c 0,-2.448 2.056,-7 4,-7 z M 48.956,52 H 21 V 51 A 2.3,2.3 0 0 0 19,49 H 8.7 l 4.162,-7.492 c 1.508,-2.554 3.236,-4.024 5.144,-4.4 A 5.994,5.994 0 0 0 29.911,37.997 13.863,13.863 0 0 1 35,37 14.015,14.015 0 0 1 49,51 c 0,0.321 -0.015,0.65 -0.044,1 z"
       id="path185581" />
    <path
       d="m 38.242,39.03 -0.484,1.94 c 0.035,0.009 3.63,0.953 6.385,5.545 l 1.714,-1.03 c -3.176,-5.294 -7.435,-6.41 -7.615,-6.455 z"
       id="path185583" />
    <path
       d="m 45,48 h 2 v 2 h -2 z"
       id="path185585" />
    <path
       d="M 47,2 A 14.989,14.989 0 0 0 33.75,24.018 l -1.727,7.765 A 1,1 0 0 0 33,33 1.028,1.028 0 0 0 33.263,32.965 l 7.9,-2.155 A 14.852,14.852 0 0 0 47,32 15,15 0 0 0 47,2 Z m 0,28 A 12.893,12.893 0 0 1 41.655,28.841 1.008,1.008 0 0 0 40.98,28.787 L 34.336,30.6 35.784,24.084 A 1.007,1.007 0 0 0 35.684,23.375 12.995,12.995 0 1 1 47,30 Z"
       id="path185587" />
    <path
       d="m 45.293,9.293 -1.274,1.274 A 3.915,3.915 0 0 0 43,10.142 V 8 h -2 v 2.142 a 3.915,3.915 0 0 0 -1.019,0.425 l -1.274,-1.274 -1.414,1.414 1.274,1.274 A 3.915,3.915 0 0 0 38.142,13 H 36 v 2 h 2.142 A 3.991,3.991 0 0 0 41,17.858 V 20 h 2 v -2.142 a 3.915,3.915 0 0 0 1.019,-0.425 l 1.274,1.274 1.414,-1.414 -1.274,-1.274 a 3.878,3.878 0 0 0 0,-4.038 l 1.274,-1.274 z M 42,16 a 2,2 0 1 1 2,-2 2,2 0 0 1 -2,2 z"
       id="path185589" />
    <path
       d="M 54.293,17.293 53.285,18.3 A 2.746,2.746 0 0 0 53,18.184 V 17 h -2 v 1.184 A 3,3 0 0 0 49.184,20 H 48 v 2 h 1.184 a 2.746,2.746 0 0 0 0.117,0.285 l -1.008,1.008 1.414,1.414 1.008,-1.007 a 2.893,2.893 0 0 0 2.57,0 l 1.008,1.008 1.414,-1.414 -1.007,-1.009 a 2.893,2.893 0 0 0 0,-2.57 l 1.008,-1.008 z M 52,22 a 1,1 0 1 1 1,-1 1,1 0 0 1 -1,1 z"
       id="path185591" />
    <path
       d="m 48,7 h 2 v 2 h -2 z"
       id="path185593" />
    <path
       d="m 50,11 h 2 v 2 h -2 z"
       id="path185595" />
    <path
       d="m 38,22 h 2 v 2 h -2 z"
       id="path185597" />
    <path
       d="m 44,25 h 2 v 2 h -2 z"
       id="path185599" />
  </g>
</svg>
