<?xml version="1.0" standalone="no"?>
<!DOCTYPE svg PUBLIC "-//W3C//DTD SVG 20010904//EN"
 "http://www.w3.org/TR/2001/REC-SVG-20010904/DTD/svg10.dtd">
<svg version="1.0" xmlns="http://www.w3.org/2000/svg"
 width="700.000000pt" height="700.000000pt" viewBox="0 0 700.000000 700.000000"
 preserveAspectRatio="xMidYMid meet">
<metadata>
Created by potrace 1.14, written by Peter Selinger 2001-2017
</metadata>
<g transform="translate(0.000000,700.000000) scale(0.100000,-0.100000)"
fill="#000000" stroke="none">
<path d="M4865 6773 c-276 -33 -524 -124 -752 -275 -146 -97 -343 -293 -437
-435 -324 -490 -374 -1085 -134 -1605 l40 -87 -97 -440 c-90 -403 -97 -442
-85 -472 14 -34 62 -69 95 -69 11 0 218 54 461 120 l441 120 48 -20 c63 -27
199 -65 310 -87 125 -24 423 -24 555 0 600 111 1081 521 1273 1087 68 198 81
288 81 530 0 186 -3 229 -22 320 -72 329 -223 610 -452 840 -314 314 -732 484
-1175 479 -66 -1 -133 -4 -150 -6z m335 -223 c466 -57 873 -337 1089 -751 104
-199 150 -373 158 -604 7 -197 -11 -326 -68 -500 -131 -394 -419 -705 -799
-864 -346 -144 -722 -146 -1080 -6 l-94 37 -374 -102 c-205 -56 -375 -100
-377 -98 -2 2 32 163 75 358 44 195 80 363 80 372 0 10 -22 64 -49 120 -101
212 -143 398 -143 628 0 226 42 417 137 615 261 545 848 867 1445 795z"/>
<path d="M5140 6125 l0 -115 110 0 110 0 0 115 0 115 -110 0 -110 0 0 -115z"/>
<path d="M4377 6124 c-4 -4 -7 -57 -7 -119 l0 -111 -52 -22 -52 -22 -68 67
-67 67 -53 -49 c-29 -27 -66 -62 -81 -78 l-29 -30 70 -71 c53 -54 68 -75 61
-86 -5 -8 -16 -32 -24 -52 l-15 -38 -115 0 -115 0 0 -110 0 -110 115 0 c101 0
116 -2 121 -17 39 -116 130 -221 236 -268 l67 -30 3 -115 3 -115 113 -3 112
-3 0 121 c0 77 4 120 10 120 6 0 30 9 53 20 l41 20 71 -70 70 -70 80 80 79 80
-68 69 -69 70 24 53 c20 45 24 69 24 163 0 93 -4 119 -24 168 l-24 59 69 69
69 69 -78 77 -77 78 -69 -69 -69 -69 -56 23 -55 23 -3 116 -3 116 -106 3 c-58
1 -108 -1 -112 -4z"/>
<path d="M5360 5690 l0 -110 110 0 110 0 0 110 0 110 -110 0 -110 0 0 -110z"/>
<path d="M5470 5077 l0 -62 -45 -24 c-52 -27 -118 -95 -142 -146 -16 -35 -17
-35 -80 -35 l-63 0 0 -110 0 -110 64 0 c36 0 68 -5 72 -11 3 -6 -17 -34 -45
-63 -28 -28 -51 -56 -51 -62 0 -5 34 -43 75 -84 l75 -74 53 52 53 52 73 -16
c67 -15 77 -15 143 1 l70 17 54 -53 54 -54 77 78 78 77 -53 53 -53 53 16 59
c19 75 19 108 -1 175 l-16 53 51 51 c28 28 51 56 51 62 0 5 -34 43 -75 84
l-75 74 -57 -56 c-32 -30 -64 -54 -70 -51 -9 3 -13 27 -13 69 l0 64 -110 0
-110 0 0 -63z"/>
<path d="M4050 4485 l0 -115 110 0 111 0 -3 113 -3 112 -107 3 -108 3 0 -116z"/>
<path d="M4707 4263 c-4 -3 -7 -53 -7 -110 l0 -103 110 0 110 0 0 110 0 110
-103 0 c-57 0 -107 -3 -110 -7z"/>
<path d="M2442 3929 c-23 -4 -70 -23 -103 -41 -171 -90 -319 -303 -414 -591
-38 -116 -46 -132 -67 -135 -64 -9 -180 -47 -252 -85 -157 -81 -314 -230 -434
-411 -37 -56 -166 -279 -286 -497 l-219 -396 -54 33 c-176 106 -391 41 -476
-144 -34 -73 -31 -198 6 -274 53 -108 166 -180 286 -182 101 -1 164 25 238 99
34 34 65 74 69 89 l6 26 612 -2 611 -3 5 -125 c6 -138 10 -151 48 -177 26 -17
124 -18 2205 -23 l2179 -5 24 -28 c17 -20 24 -40 24 -72 0 -56 -30 -93 -85
-105 -22 -5 -364 -10 -780 -10 l-740 0 -60 -29 c-222 -107 -254 -411 -58 -555
85 -63 106 -66 500 -66 l353 0 0 110 0 110 -349 0 c-334 0 -349 1 -374 20 -14
11 -31 36 -37 55 -10 30 -9 41 7 73 37 75 -4 72 835 72 742 0 748 0 805 22 77
29 153 105 183 185 29 78 25 186 -10 258 -31 63 -92 124 -155 156 l-50 24
-482 3 -483 3 0 95 c0 594 -293 1145 -781 1470 -447 298 -980 372 -1510 208
-13 -3 -19 8 -28 58 -18 90 -74 254 -120 351 -54 112 -121 210 -197 288 -127
129 -252 176 -392 148z m169 -247 c119 -76 246 -293 310 -532 32 -119 32 -271
0 -353 -61 -155 -206 -261 -376 -274 -222 -17 -420 142 -456 367 -36 226 148
670 328 789 63 42 130 43 194 3z"/>
<path d="M2459 3166 c-81 -22 -141 -84 -158 -166 -22 -101 24 -195 118 -242
92 -47 177 -33 251 42 73 72 88 156 46 246 -46 98 -153 148 -257 120z"/>
</g>
</svg>
